<svg id="Capa_1" data-name="Capa 1" xmlns="http://www.w3.org/2000/svg" viewBox="0 0 120.17 136.76"><defs><style>.cls-1,.cls-3{fill:#fcfcfc;}.cls-1{opacity:0.5;}.cls-2{fill:#50aaff;}.cls-4{fill:#fafbfc;}</style></defs><path class="cls-1" d="M34.05,79a9.26,9.26,0,0,1-6.8-15.56L45.86,43.37,26.1,23.11A9.27,9.27,0,0,1,39.37,10.16l25.33,26a10.16,10.16,0,0,1,.18,14l-24,26A9.26,9.26,0,0,1,34.05,79Z"/><path class="cls-2" d="M60.73,79a9.27,9.27,0,0,1-9.27-9.27h0V9.27A9.27,9.27,0,0,1,70,9.27v60.5A9.27,9.27,0,0,1,60.73,79Z"/><path class="cls-3" d="M86.3,79a9.19,9.19,0,0,1-6.63-2.79l-25.32-26a10.16,10.16,0,0,1-.18-14l24-25.94A9.3,9.3,0,1,1,91.79,22.93L73.18,43,92.94,63.3A9.26,9.26,0,0,1,86.3,79ZM67.78,48.87Z"/><path class="cls-4" d="M5.1,101.67,17.62,89.31a1.47,1.47,0,1,0-2.07-2.1L3.69,98.91v-18a1.76,1.76,0,0,0-.53-1.3A1.73,1.73,0,0,0,1.87,79,1.81,1.81,0,0,0,0,80.87v34.38a1.88,1.88,0,0,0,.47,1.28,1.76,1.76,0,0,0,1.35.55,1.76,1.76,0,0,0,1.3-.53,2,2,0,0,0,.57-1.3V104.41l12.45,11.8a1.47,1.47,0,0,0,2.08-.06h0a1.47,1.47,0,0,0,0-2.08h0Z"/><path class="cls-4" d="M41.9,105.59a1.66,1.66,0,0,0,.54-1.25,11.25,11.25,0,0,0-.94-4.58,10.71,10.71,0,0,0-2.34-3.35,9.79,9.79,0,0,0-3.33-2.08,11,11,0,0,0-3.84-.7,9.8,9.8,0,0,0-5.13,1.47A11.23,11.23,0,0,0,23,99.25a13.22,13.22,0,0,0-1.5,6.47A12.64,12.64,0,0,0,23,111.89,10.64,10.64,0,0,0,27.05,116a12.34,12.34,0,0,0,6.1,1.48,9.75,9.75,0,0,0,4.75-1.2,12.3,12.3,0,0,0,3.47-2.78,1.69,1.69,0,0,0,.56-1.24,1.57,1.57,0,0,0-.46-1.11,1.55,1.55,0,0,0-1.15-.5,1.82,1.82,0,0,0-1.23.51l-.06.07a7.9,7.9,0,0,1-1.44,1.39,7.28,7.28,0,0,1-2,1.07,7.51,7.51,0,0,1-2.49.4A8.22,8.22,0,0,1,28.69,113a7.51,7.51,0,0,1-2.79-3.07,9.47,9.47,0,0,1-1-3.83H40.66A1.74,1.74,0,0,0,41.9,105.59Zm-16.32-3.87a7.9,7.9,0,0,1,1.67-2.63,6.52,6.52,0,0,1,2.27-1.5,6.85,6.85,0,0,1,5.54.22,7.18,7.18,0,0,1,2.51,2,5.69,5.69,0,0,1,1.17,3H25.23A8.14,8.14,0,0,1,25.58,101.72Z"/><path class="cls-4" d="M50.72,84.32a1.81,1.81,0,0,0-1.78,1.78v29.2a1.79,1.79,0,0,0,.5,1.24,1.72,1.72,0,0,0,1.28.54,1.74,1.74,0,0,0,1.25-.53,1.65,1.65,0,0,0,.53-1.25V86.1a1.71,1.71,0,0,0-.5-1.24A1.72,1.72,0,0,0,50.72,84.32Z"/><path class="cls-4" d="M76.34,95.49A9.94,9.94,0,0,0,70.9,94a10.73,10.73,0,0,0-2.93.4,8.88,8.88,0,0,0-2.59,1.21,9,9,0,0,0-1.85,1.64V95.89A1.83,1.83,0,0,0,63,94.6a1.83,1.83,0,0,0-2.6,0,1.82,1.82,0,0,0-.5,1.29v28a1.81,1.81,0,0,0,1.82,1.78,1.67,1.67,0,0,0,1.28-.54,1.79,1.79,0,0,0,.5-1.24V114a10.52,10.52,0,0,0,1.8,1.6,10.15,10.15,0,0,0,2.6,1.28,9.56,9.56,0,0,0,3,.48,9.82,9.82,0,0,0,5.38-1.54,10.92,10.92,0,0,0,3.77-4.18,13.73,13.73,0,0,0,0-12A10.82,10.82,0,0,0,76.34,95.49Zm-9.47,2.94a6.84,6.84,0,0,1,3.81-1.06,6.65,6.65,0,0,1,3.75,1.06A7.46,7.46,0,0,1,77,101.35a9.34,9.34,0,0,1,1,4.29A9.53,9.53,0,0,1,77,110a7.4,7.4,0,0,1-2.57,3,6.78,6.78,0,0,1-3.75,1,6.94,6.94,0,0,1-3.81-1.06,7.47,7.47,0,0,1-2.6-3,9.67,9.67,0,0,1-.95-4.33,9.45,9.45,0,0,1,.95-4.31A7.49,7.49,0,0,1,66.87,98.43Z"/><path class="cls-4" d="M89.91,93.76a1.72,1.72,0,0,0-1.28.54,1.79,1.79,0,0,0-.5,1.24V115.3a1.74,1.74,0,0,0,.47,1.23,1.68,1.68,0,0,0,1.31.55,1.8,1.8,0,0,0,1.78-1.78V95.54a1.79,1.79,0,0,0-.5-1.24A1.72,1.72,0,0,0,89.91,93.76Z"/><path class="cls-4" d="M90,87.28a2.52,2.52,0,0,0-1.67.52,1.93,1.93,0,0,0-.67,1.56v.43a2,2,0,0,0,.62,1.55,2.86,2.86,0,0,0,3.32,0,2,2,0,0,0,.61-1.55v-.43a2,2,0,0,0-.61-1.55A2.33,2.33,0,0,0,90,87.28Z"/><path class="cls-4" d="M118.09,110.68a1.82,1.82,0,0,0-1.23.51l-.06.07a7.9,7.9,0,0,1-1.44,1.39,7.28,7.28,0,0,1-2,1.07,7.57,7.57,0,0,1-2.5.4,8.26,8.26,0,0,1-4.42-1.13,7.49,7.49,0,0,1-2.78-3.07,9.47,9.47,0,0,1-1-3.83h15.73a1.79,1.79,0,0,0,1.24-.5,1.66,1.66,0,0,0,.54-1.25,11.66,11.66,0,0,0-.94-4.58,10.74,10.74,0,0,0-2.35-3.35,9.66,9.66,0,0,0-3.32-2.08,11,11,0,0,0-3.84-.7,9.8,9.8,0,0,0-5.13,1.47,11.13,11.13,0,0,0-3.91,4.15,13.22,13.22,0,0,0-1.5,6.47,12.52,12.52,0,0,0,1.47,6.17,10.78,10.78,0,0,0,4.12,4.14,12.41,12.41,0,0,0,6.11,1.48,9.68,9.68,0,0,0,4.74-1.2,12,12,0,0,0,3.47-2.78,1.63,1.63,0,0,0,.57-1.24,1.59,1.59,0,0,0-.46-1.11A1.57,1.57,0,0,0,118.09,110.68Zm-1.58-7.9H103a8.16,8.16,0,0,1,.34-1.06A7.88,7.88,0,0,1,105,99.09a6.38,6.38,0,0,1,2.27-1.5,6.85,6.85,0,0,1,5.54.22,7.18,7.18,0,0,1,2.51,2A5.78,5.78,0,0,1,116.51,102.78Z"/><path class="cls-4" d="M23.38,135.1a4.41,4.41,0,0,0,2.21.62c1.25,0,2-.67,2-1.63s-.51-1.4-1.8-1.89c-1.55-.55-2.51-1.36-2.51-2.7a2.83,2.83,0,0,1,3.08-2.58,4.25,4.25,0,0,1,2.1.46l-.34,1a3.76,3.76,0,0,0-1.8-.46c-1.3,0-1.8.78-1.8,1.43,0,.89.58,1.33,1.9,1.84,1.61.62,2.42,1.4,2.42,2.79s-1.08,2.74-3.33,2.74a4.92,4.92,0,0,1-2.43-.6Z"/><path class="cls-4" d="M37.45,133.12a3.34,3.34,0,0,1-3,3.62h-.36a3.26,3.26,0,0,1-3.29-3.23,2.81,2.81,0,0,1,0-.29,3.34,3.34,0,0,1,3-3.62h.35a3.24,3.24,0,0,1,3.3,3.18C37.46,132.89,37.46,133,37.45,133.12Zm-5.42.07c0,1.5.86,2.63,2.07,2.63s2.08-1.12,2.08-2.66c0-1.16-.58-2.63-2-2.63A2.41,2.41,0,0,0,32,133.19Z"/><path class="cls-4" d="M39.73,126.56H41v10H39.73Z"/><path class="cls-4" d="M49.49,134.73v1.86h-1.1l-.07-1.11h0a2.56,2.56,0,0,1-2.26,1.27c-1.07,0-2.36-.59-2.36-3v-4H45v3.78c0,1.3.39,2.18,1.52,2.18a1.79,1.79,0,0,0,1.64-1.13,2,2,0,0,0,.11-.64v-4.19h1.25Z"/><path class="cls-4" d="M53.75,127.79v2h1.78v.94H53.75v3.69c0,.85.24,1.33.94,1.33a2.9,2.9,0,0,0,.72-.09l.05.94a3.16,3.16,0,0,1-1.1.16,1.73,1.73,0,0,1-1.34-.52,2.52,2.52,0,0,1-.48-1.78V130.7H51.48v-.94h1.06v-1.64Z"/><path class="cls-4" d="M59,127.84a.73.73,0,0,1-.7.76h-.09a.74.74,0,0,1-.75-.73v0a.76.76,0,0,1,.74-.78h0a.73.73,0,0,1,.76.7Zm-1.38,8.75v-6.83h1.24v6.83Z"/><path class="cls-4" d="M67.84,133.12a3.34,3.34,0,0,1-3,3.62h-.37a3.25,3.25,0,0,1-3.28-3.22c0-.1,0-.2,0-.3a3.34,3.34,0,0,1,3-3.62h.37a3.24,3.24,0,0,1,3.3,3.18C67.85,132.89,67.85,133,67.84,133.12Zm-5.43.07c0,1.5.86,2.63,2.08,2.63s2.08-1.12,2.08-2.66c0-1.16-.58-2.63-2-2.63A2.4,2.4,0,0,0,62.41,133.19Z"/><path class="cls-4" d="M70.11,131.61v-1.85h1.1l.07,1.13h0a2.53,2.53,0,0,1,2.26-1.29c.94,0,2.41.57,2.41,2.91v4.08H74.69v-3.94c0-1.1-.41-2-1.58-2a1.78,1.78,0,0,0-1.67,1.27,1.9,1.9,0,0,0-.09.58v4.11H70.11Z"/><path class="cls-4" d="M78.49,135.32a3.28,3.28,0,0,0,1.64.5c.9,0,1.32-.46,1.32-1s-.35-.92-1.27-1.26c-1.23-.44-1.8-1.11-1.8-1.93a2.1,2.1,0,0,1,2.18-2h.17a3.56,3.56,0,0,1,1.69.42l-.32.91a2.64,2.64,0,0,0-1.39-.4c-.74,0-1.15.43-1.15.94s.41.81,1.3,1.15c1.19.46,1.8,1,1.8,2.07s-.94,2-2.56,2a4,4,0,0,1-1.92-.46Z"/><path class="cls-4" d="M17.2,117.25a2.18,2.18,0,0,1-1.51-.6L1.55,103.41a2.23,2.23,0,0,1-.1-3.14l0,0L14.89,86.38a2.22,2.22,0,0,1,3.19,3.08L6.22,101.71l12.5,11.7a2.22,2.22,0,0,1-1.52,3.84Z"/></svg>